<?xml version="1.0" encoding="UTF-8"?><svg id="Layer_2" xmlns="http://www.w3.org/2000/svg" viewBox="0 0 1041.96 309.89"><defs><style>.cls-1{fill:#4e9332;}.cls-1,.cls-2,.cls-3,.cls-4{stroke-width:0px;}.cls-2{fill:#0d5b29;}.cls-3{fill:#007134;}.cls-4{fill:#6bb42b;}</style></defs><g id="Layer_1-2"><path class="cls-2" d="M231.27,236.4l48.46-126.86h29.15l48.26,126.86h-27.58l-12.01-30.53h-46.69l-11.82,30.53h-27.78ZM274.81,185.38h38.81l-19.5-51.02-19.31,51.02Z"/><path class="cls-2" d="M399.48,268.14c-6.92,0-14.01-.46-21.26-1.37-7.25-.92-13.36-2.22-18.33-3.92v-19.79c5.22,1.69,11.37,3.04,18.42,4.02,7.06.98,13.65,1.47,19.8,1.47,9.02,0,15.55-.49,19.6-1.47,4.05-.98,6.08-2.71,6.08-5.19,0-2.09-.89-3.53-2.65-4.31-1.76-.78-5.46-1.18-11.07-1.18h-25.29c-16.6,0-24.89-6.14-24.89-18.43,0-3.79,1.04-7.25,3.14-10.39,2.09-3.13,5.42-5.62,10-7.45-10.59-5.36-15.88-14.38-15.88-27.05,0-12.02,3.72-20.74,11.17-26.17,7.45-5.42,18.49-8.13,33.13-8.13,3,0,6.3.23,9.9.69,3.59.46,6.3.88,8.14,1.27h25.62l4.99,16.66h-11.01c4.05,3.79,6.08,9.09,6.08,15.88,0,9.54-3.01,17.15-9.02,22.83-6.01,5.68-14.9,8.52-26.66,8.52-2.09,0-4.08-.1-5.98-.29-1.9-.2-3.82-.42-5.78-.69-3.92.52-7.22,1.44-9.9,2.74-2.68,1.31-4.02,3.07-4.02,5.29,0,3.01,2.68,4.51,8.04,4.51h26.26c9.41,0,16.66,2.13,21.76,6.37,5.1,4.25,7.64,10.42,7.64,18.52,0,9.15-4.11,15.94-12.35,20.38-8.23,4.44-20.12,6.67-35.68,6.67M401.64,189.74c7.84,0,13.29-1.34,16.37-4.02,3.07-2.68,4.6-7.22,4.6-13.62s-1.54-11.04-4.6-13.91c-3.07-2.88-8.53-4.31-16.37-4.31s-12.81,1.4-16.07,4.21c-3.27,2.81-4.9,7.48-4.9,14.01,0,6.01,1.54,10.45,4.61,13.33,3.07,2.88,8.52,4.31,16.36,4.31Z"/><path class="cls-2" d="M457.88,236.4v-95.66h26.46v9.21c4.18-2.62,8.59-4.61,14.79-6.76,6.21-2.15,12.32-3.63,18.33-4.41v19.99c-3.53.53-7.38,1.31-11.56,2.35-4.18,1.05-8.17,2.22-11.96,3.53-3.79,1.31-6.99,2.68-9.6,4.12v67.63h-26.46Z"/><path class="cls-2" d="M567.98,236.4c-17.38,0-30.12-4.25-38.22-12.75-8.1-8.5-12.15-20.52-12.15-36.07s4.08-27.57,12.25-36.06c8.17-8.5,20.87-12.74,38.12-12.74s30.15,4.25,38.32,12.74c8.17,8.5,12.25,20.52,12.25,36.06s-4.05,27.57-12.15,36.07c-8.11,8.5-20.91,12.75-38.42,12.75M567.98,213.68c8.49,0,14.57-1.94,18.23-5.83,3.65-3.89,5.49-10.64,5.49-20.26s-1.84-16.37-5.49-20.26c-3.66-3.88-9.74-5.83-18.23-5.83s-14.37,1.95-18.03,5.83c-3.66,3.89-5.49,10.64-5.49,20.26s1.83,16.37,5.49,20.26c3.66,3.89,9.67,5.83,18.03,5.83Z"/><path class="cls-4" d="M788.15,236.4c-17.38,0-30.12-4.25-38.22-12.75-8.1-8.5-12.15-20.52-12.15-36.07s4.08-27.57,12.25-36.06c8.17-8.5,20.87-12.74,38.12-12.74s30.15,4.25,38.32,12.74c8.17,8.5,12.25,20.52,12.25,36.06s-4.05,27.57-12.15,36.07c-8.11,8.5-20.91,12.75-38.42,12.75M788.15,213.68c8.49,0,14.57-1.94,18.23-5.83,3.65-3.89,5.49-10.64,5.49-20.26s-1.84-16.37-5.49-20.26c-3.66-3.88-9.74-5.83-18.23-5.83s-14.37,1.95-18.03,5.83c-3.66,3.89-5.49,10.64-5.49,20.26s1.83,16.37,5.49,20.26c3.66,3.89,9.67,5.83,18.03,5.83Z"/><path class="cls-4" d="M631.99,236.4v-126.86h59.49c9.98,0,18.15,1.9,24.53,5.71,6.37,3.81,11.13,9,14.28,15.56,3.15,6.57,4.73,14.05,4.73,22.46s-1.81,16.09-5.42,22.65c-3.61,6.57-8.73,11.65-15.36,15.27-6.63,3.62-14.48,5.42-23.54,5.42h-32.11v39.79h-26.6ZM658.59,175.53h26.59c7.61,0,13.36-2,17.24-6.01,3.87-4,5.81-9.42,5.81-16.25,0-7.35-1.84-12.97-5.51-16.84-3.68-3.87-9.19-5.81-16.55-5.81h-27.58v44.91Z"/><polygon class="cls-4" points="847.2 236.4 847.32 140.74 873.66 140.74 873.66 236.4 847.2 236.4"/><path class="cls-4" d="M884.9,236.4v-95.66h26.46v10.59c3.79-2.87,7.61-4.41,13.42-6.56,5.82-2.16,11.93-3.23,18.33-3.23,12.28,0,21.23,2.87,26.85,8.62,5.61,5.75,8.43,14.64,8.43,26.66v59.59h-26.46v-58.21c0-6.27-1.27-10.71-3.82-13.33-2.55-2.61-7.29-3.92-14.21-3.92-4.05,0-8.14.92-12.25,2.74-4.12,1.83-7.55,4.12-10.29,6.86v65.86h-26.46Z"/><path class="cls-4" d="M1021.18,236.4c-10.71,0-18.65-2.81-23.81-8.43-5.17-5.62-7.74-13.26-7.74-22.93v-43.12h.03v-21.18h-.03v-19.2l26.46-7.84v27.04l21.92.06v21.12h-21.92v41.36c0,5.1,1.17,8.59,3.52,10.49,2.36,1.9,6.01,2.84,10.98,2.84,3.66,0,7.45-.66,11.37-1.96v18.23c-2.88,1.18-6.01,2.06-9.41,2.65-3.4.59-7.19.88-11.37.88"/><path class="cls-4" d="M111.33.04c-.94-.03-1.86-.04-2.8-.04s-1.86.01-2.8.04C47.17,1.53,0,49.62,0,108.53c0,21.82,7.8,46.43,19.22,70.76,27.73-10.62,57.84-16.42,89.31-16.42s61.58,5.8,89.31,16.42c11.42-24.33,19.22-48.94,19.22-70.76C217.06,49.62,169.89,1.53,111.33.04M108.53,143.3c-27.77,0-50.28-22.55-50.28-50.33s22.51-50.36,50.28-50.36,50.28,22.54,50.28,50.36-22.5,50.33-50.28,50.33Z"/><path class="cls-1" d="M19.22,179.29c2.45,5.23,5.07,10.44,7.81,15.61,1.33-.03,2.64-.04,3.97-.04,49.85,0,96.29,14.57,135.31,39.7,11.38-17.27,22.57-36.19,31.53-55.28-27.73-10.62-57.84-16.42-89.31-16.42s-61.58,5.8-89.31,16.42"/><path class="cls-3" d="M27.03,194.9c10.82,20.38,23.59,40.08,35.76,57.26,28.08.83,55.01,6.3,80.03,15.67,7.47-9.96,15.52-21.21,23.48-33.27-39.02-25.13-85.46-39.7-135.31-39.7-1.33,0-2.64.01-3.97.04"/><path class="cls-2" d="M108.37,309.89h.32c1.71-1.9,16.25-18.24,34.14-42.06-25.03-9.37-51.96-14.84-80.04-15.67,22.79,32.13,43.5,55.43,45.57,57.73"/></g></svg>